<svg xmlns="http://www.w3.org/2000/svg" xmlns:xlink="http://www.w3.org/1999/xlink" width="500" zoomAndPan="magnify" viewBox="0 0 375 374.999991" height="500" preserveAspectRatio="xMidYMid meet" version="1.0"><defs><clipPath id="4f819d4ff6"><path d="M 0 80.339844 L 375 80.339844 L 375 294.839844 L 0 294.839844 Z M 0 80.339844 " clip-rule="nonzero"/></clipPath></defs><g clip-path="url(#4f819d4ff6)"><path fill="#ffffff" d="M 231.0625 80.265625 L 230.816406 80.269531 C 192.824219 82.328125 159.6875 93.289062 131.410156 113.160156 L 131.355469 113.199219 C 118.664062 122.539062 107.148438 132.984375 96.804688 144.535156 L 96.691406 144.671875 C 38.078125 218.535156 5.960938 256.703125 0.347656 259.171875 L 0.34375 259.171875 C -0.0273438 259.304688 -0.367188 259.511719 -0.65625 259.78125 C -20.871094 278.40625 -40.644531 288.015625 -59.972656 288.601562 C -61.613281 288.648438 -62.90625 290.023438 -62.855469 291.664062 C -62.808594 293.277344 -61.484375 294.550781 -59.882812 294.550781 C -59.851562 294.550781 -59.820312 294.550781 -59.792969 294.550781 C -39.113281 293.925781 -18.191406 283.917969 2.972656 264.53125 L 2.9375 264.53125 C 9.886719 261.015625 42.65625 222.339844 101.246094 148.507812 L 101.242188 148.507812 C 111.296875 137.277344 122.492188 127.117188 134.832031 118.03125 C 162.148438 98.839844 194.203125 88.238281 231.003906 86.21875 L 231.042969 86.21875 C 280.222656 87.660156 307.480469 104.855469 312.816406 137.800781 L 312.777344 137.800781 C 312.550781 146.921875 311.4375 152.5625 309.433594 154.71875 C 290.347656 142.976562 272.566406 137.105469 256.089844 137.105469 C 236.769531 137.105469 219.246094 145.171875 203.511719 161.304688 C 203.359375 161.460938 203.222656 161.636719 203.109375 161.820312 C 202.453125 162.882812 201.824219 163.945312 201.230469 165 C 183.242188 196.914062 193.746094 223.863281 232.75 245.847656 L 232.882812 245.917969 C 251.21875 255.058594 275.746094 259.628906 306.46875 259.628906 C 311.1875 259.628906 316.054688 259.523438 321.070312 259.304688 L 321.066406 259.304688 C 345.550781 258.417969 383.117188 251.167969 433.769531 237.554688 L 433.75 237.554688 C 437.152344 236.855469 441.324219 236.507812 446.261719 236.507812 C 448.308594 236.507812 450.488281 236.566406 452.800781 236.6875 L 452.78125 236.6875 C 453.53125 236.75 454.207031 236.832031 454.800781 236.929688 L 454.757812 236.929688 C 444.246094 244.503906 439.457031 252.21875 440.394531 260.082031 C 441.058594 266.511719 447.375 271.417969 459.351562 274.792969 L 459.324219 274.792969 C 462.488281 275.929688 466.195312 276.496094 470.441406 276.496094 C 483.1875 276.496094 500.816406 271.394531 523.339844 261.1875 L 523.378906 261.1875 C 536.691406 276.242188 552.726562 283.769531 571.496094 283.769531 C 583.410156 283.769531 596.425781 280.734375 610.539062 274.667969 C 612.050781 274.019531 612.746094 272.269531 612.097656 270.757812 C 611.613281 269.632812 610.515625 268.957031 609.363281 268.957031 C 608.96875 268.957031 608.570312 269.035156 608.1875 269.199219 C 594.984375 274.875 582.835938 277.714844 571.753906 277.714844 C 553.898438 277.714844 538.796875 270.351562 526.445312 255.625 C 525.867188 254.933594 525.023438 254.558594 524.164062 254.558594 C 523.746094 254.558594 523.320312 254.648438 522.917969 254.832031 C 500.101562 265.347656 482.6875 270.605469 470.679688 270.605469 C 467.011719 270.605469 463.847656 270.117188 461.1875 269.136719 L 460.964844 269.0625 C 451.5625 266.410156 446.679688 263.203125 446.3125 259.441406 L 446.304688 259.378906 C 445.566406 253.175781 450.589844 246.59375 461.375 239.625 C 462.015625 239.214844 462.472656 238.570312 462.652344 237.832031 C 463.132812 235.867188 462.542969 234.238281 460.886719 232.945312 C 460.015625 232.261719 458.820312 231.734375 457.300781 231.363281 C 456.164062 231.085938 454.800781 230.882812 453.207031 230.746094 L 452.960938 230.738281 L 453.109375 230.742188 C 450.710938 230.617188 448.441406 230.554688 446.292969 230.554688 C 440.925781 230.554688 436.34375 230.945312 432.550781 231.722656 L 432.378906 231.761719 C 382.082031 245.285156 344.910156 252.484375 320.851562 253.355469 L 320.832031 253.355469 C 315.878906 253.570312 311.074219 253.675781 306.417969 253.675781 C 276.746094 253.675781 253.167969 249.339844 235.679688 240.660156 L 235.671875 240.660156 C 200.128906 220.625 190.378906 196.378906 206.417969 167.921875 C 206.902344 167.0625 207.410156 166.203125 207.9375 165.335938 L 207.898438 165.335938 C 222.324219 150.597656 238.441406 143.230469 256.253906 143.230469 C 272.125 143.230469 289.34375 149.078125 307.902344 160.777344 C 308.382812 161.082031 308.9375 161.238281 309.488281 161.238281 C 309.882812 161.238281 310.273438 161.160156 310.644531 161.003906 C 315.753906 158.851562 318.453125 150.996094 318.742188 137.445312 C 318.746094 137.265625 318.734375 137.085938 318.703125 136.90625 C 312.859375 100.648438 283.644531 81.769531 231.0625 80.265625 Z M 231.0625 80.265625 " fill-opacity="0.996" fill-rule="nonzero"/></g></svg>