<?xml version="1.0" encoding="UTF-8"?>
<svg xmlns="http://www.w3.org/2000/svg" viewBox="0 0 1200 80" width="1200" height="80">
  <polyline points="0,40.00 1,40.50 2,41.00 3,41.50 4,42.00 5,42.49 6,42.99 7,43.48 8,43.97 9,44.46 10,44.95 11,45.43 12,45.91 13,46.39 14,46.86 15,47.33 16,47.79 17,48.25 18,48.70 19,49.15 20,49.59 21,50.02 22,50.45 23,50.88 24,51.29 25,51.70 26,52.10 27,52.50 28,52.88 29,53.26 30,53.63 31,53.99 32,54.35 33,54.69 34,55.03 35,55.35 36,55.67 37,55.97 38,56.27 39,56.55 40,56.83 41,57.09 42,57.35 43,57.59 44,57.82 45,58.05 46,58.26 47,58.45 48,58.64 49,58.82 50,58.98 51,59.13 52,59.27 53,59.40 54,59.51 55,59.62 56,59.71 57,59.79 58,59.85 59,59.91 60,59.95 61,59.98 62,60.00 63,60.00 64,59.99 65,59.97 66,59.94 67,59.89 68,59.83 69,59.76 70,59.68 71,59.58 72,59.48 73,59.36 74,59.23 75,59.08 76,58.93 77,58.76 78,58.58 79,58.39 80,58.19 81,57.97 82,57.75 83,57.51 84,57.26 85,57.01 86,56.74 87,56.46 88,56.17 89,55.87 90,55.56 91,55.24 92,54.91 93,54.58 94,54.23 95,53.87 96,53.51 97,53.14 98,52.76 99,52.37 100,51.97 101,51.57 102,51.15 103,50.74 104,50.31 105,49.88 106,49.44 107,49.00 108,48.55 109,48.09 110,47.63 111,47.17 112,46.70 113,46.23 114,45.75 115,45.27 116,44.78 117,44.30 118,43.81 119,43.32 120,42.82 121,42.33 122,41.83 123,41.33 124,40.83 125,40.33 126,39.83 127,39.33 128,38.83 129,38.33 130,37.84 131,37.34 132,36.85 133,36.35 134,35.86 135,35.37 136,34.89 137,34.41 138,33.93 139,33.45 140,32.98 141,32.52 142,32.06 143,31.60 144,31.15 145,30.70 146,30.26 147,29.83 148,29.40 149,28.98 150,28.57 151,28.16 152,27.76 153,27.37 154,26.99 155,26.61 156,26.24 157,25.89 158,25.54 159,25.20 160,24.86 161,24.54 162,24.23 163,23.93 164,23.63 165,23.35 166,23.08 167,22.82 168,22.57 169,22.33 170,22.10 171,21.88 172,21.68 173,21.48 174,21.30 175,21.13 176,20.97 177,20.82 178,20.68 179,20.56 180,20.45 181,20.35 182,20.26 183,20.19 184,20.13 185,20.08 186,20.04 187,20.01 188,20.00 189,20.00 190,20.01 191,20.04 192,20.08 193,20.13 194,20.19 195,20.26 196,20.35 197,20.45 198,20.56 199,20.69 200,20.82 201,20.97 202,21.13 203,21.30 204,21.48 205,21.68 206,21.88 207,22.10 208,22.33 209,22.57 210,22.82 211,23.08 212,23.35 213,23.64 214,23.93 215,24.23 216,24.54 217,24.87 218,25.20 219,25.54 220,25.89 221,26.25 222,26.62 223,26.99 224,27.37 225,27.77 226,28.17 227,28.57 228,28.99 229,29.41 230,29.83 231,30.27 232,30.71 233,31.15 234,31.60 235,32.06 236,32.52 237,32.99 238,33.46 239,33.93 240,34.41 241,34.89 242,35.38 243,35.87 244,36.36 245,36.85 246,37.34 247,37.84 248,38.34 249,38.84 250,39.34 251,39.84 252,40.34 253,40.84 254,41.34 255,41.83 256,42.33 257,42.83 258,43.32 259,43.81 260,44.30 261,44.79 262,45.27 263,45.75 264,46.23 265,46.70 266,47.17 267,47.64 268,48.10 269,48.55 270,49.00 271,49.44 272,49.88 273,50.31 274,50.74 275,51.16 276,51.57 277,51.97 278,52.37 279,52.76 280,53.14 281,53.51 282,53.88 283,54.23 284,54.58 285,54.92 286,55.25 287,55.56 288,55.87 289,56.17 290,56.46 291,56.74 292,57.01 293,57.27 294,57.51 295,57.75 296,57.97 297,58.19 298,58.39 299,58.58 300,58.76 301,58.93 302,59.08 303,59.23 304,59.36 305,59.48 306,59.59 307,59.68 308,59.76 309,59.83 310,59.89 311,59.94 312,59.97 313,59.99 314,60.00 315,60.00 316,59.98 317,59.95 318,59.91 319,59.85 320,59.79 321,59.71 322,59.62 323,59.51 324,59.40 325,59.27 326,59.13 327,58.98 328,58.81 329,58.64 330,58.45 331,58.25 332,58.04 333,57.82 334,57.59 335,57.35 336,57.09 337,56.83 338,56.55 339,56.27 340,55.97 341,55.66 342,55.35 343,55.02 344,54.69 345,54.34 346,53.99 347,53.63 348,53.26 349,52.88 350,52.49 351,52.10 352,51.70 353,51.29 354,50.87 355,50.45 356,50.02 357,49.58 358,49.14 359,48.70 360,48.24 361,47.78 362,47.32 363,46.85 364,46.38 365,45.91 366,45.43 367,44.94 368,44.46 369,43.97 370,43.48 371,42.98 372,42.49 373,41.99 374,41.49 375,41.00 376,40.50 377,40.00 378,39.50 379,39.00 380,38.50 381,38.00 382,37.50 383,37.01 384,36.51 385,36.02 386,35.53 387,35.05 388,34.56 389,34.09 390,33.61 391,33.14 392,32.67 393,32.21 394,31.75 395,31.30 396,30.85 397,30.41 398,29.97 399,29.54 400,29.12 401,28.70 402,28.29 403,27.89 404,27.50 405,27.11 406,26.73 407,26.36 408,26.00 409,25.65 410,25.31 411,24.97 412,24.65 413,24.33 414,24.02 415,23.73 416,23.44 417,23.17 418,22.90 419,22.65 420,22.41 421,22.17 422,21.95 423,21.74 424,21.54 425,21.36 426,21.18 427,21.02 428,20.87 429,20.73 430,20.60 431,20.48 432,20.38 433,20.29 434,20.21 435,20.15 436,20.09 437,20.05 438,20.02 439,20.00 440,20.00 441,20.01 442,20.03 443,20.06 444,20.11 445,20.17 446,20.24 447,20.32 448,20.42 449,20.52 450,20.64 451,20.78 452,20.92 453,21.08 454,21.24 455,21.42 456,21.61 457,21.82 458,22.03 459,22.25 460,22.49 461,22.74 462,23.00 463,23.26 464,23.54 465,23.83 466,24.13 467,24.44 468,24.76 469,25.09 470,25.43 471,25.77 472,26.13 473,26.49 474,26.87 475,27.25 476,27.64 477,28.03 478,28.44 479,28.85 480,29.27 481,29.69 482,30.13 483,30.56 484,31.01 485,31.46 486,31.91 487,32.37 488,32.84 489,33.30 490,33.78 491,34.25 492,34.74 493,35.22 494,35.71 495,36.20 496,36.69 497,37.18 498,37.68 499,38.18 500,38.67 501,39.17 502,39.67 503,40.17 504,40.67 505,41.17 506,41.67 507,42.17 508,42.66 509,43.16 510,43.65 511,44.14 512,44.63 513,45.12 514,45.60 515,46.08 516,46.55 517,47.02 518,47.49 519,47.95 520,48.40 521,48.85 522,49.30 523,49.74 524,50.17 525,50.60 526,51.02 527,51.43 528,51.84 529,52.24 530,52.63 531,53.02 532,53.39 533,53.76 534,54.12 535,54.47 536,54.81 537,55.14 538,55.46 539,55.77 540,56.08 541,56.37 542,56.65 543,56.92 544,57.18 545,57.43 546,57.67 547,57.90 548,58.12 549,58.33 550,58.52 551,58.70 552,58.87 553,59.03 554,59.18 555,59.32 556,59.44 557,59.55 558,59.65 559,59.74 560,59.81 561,59.87 562,59.92 563,59.96 564,59.99 565,60.00 566,60.00 567,59.99 568,59.96 569,59.92 570,59.87 571,59.81 572,59.74 573,59.65 574,59.55 575,59.44 576,59.31 577,59.18 578,59.03 579,58.87 580,58.70 581,58.51 582,58.32 583,58.11 584,57.90 585,57.67 586,57.43 587,57.18 588,56.91 589,56.64 590,56.36 591,56.07 592,55.77 593,55.45 594,55.13 595,54.80 596,54.46 597,54.11 598,53.75 599,53.38 600,53.01 601,52.62 602,52.23 603,51.83 604,51.42 605,51.01 606,50.59 607,50.16 608,49.73 609,49.29 610,48.84 611,48.39 612,47.93 613,47.47 614,47.01 615,46.54 616,46.06 617,45.58 618,45.10 619,44.62 620,44.13 621,43.64 622,43.15 623,42.65 624,42.16 625,41.66 626,41.16 627,40.66 628,40.16 629,39.66 630,39.16 631,38.66 632,38.16 633,37.66 634,37.17 635,36.67 636,36.18 637,35.69 638,35.21 639,34.72 640,34.24 641,33.76 642,33.29 643,32.82 644,32.36 645,31.90 646,31.44 647,31.00 648,30.55 649,30.11 650,29.68 651,29.26 652,28.84 653,28.43 654,28.02 655,27.63 656,27.24 657,26.86 658,26.48 659,26.12 660,25.76 661,25.42 662,25.08 663,24.75 664,24.43 665,24.12 666,23.82 667,23.54 668,23.26 669,22.99 670,22.73 671,22.48 672,22.25 673,22.02 674,21.81 675,21.61 676,21.42 677,21.24 678,21.07 679,20.92 680,20.77 681,20.64 682,20.52 683,20.41 684,20.32 685,20.24 686,20.17 687,20.11 688,20.06 689,20.03 690,20.01 691,20.00 692,20.00 693,20.02 694,20.05 695,20.09 696,20.15 697,20.21 698,20.29 699,20.38 700,20.49 701,20.60 702,20.73 703,20.87 704,21.02 705,21.19 706,21.36 707,21.55 708,21.75 709,21.96 710,22.18 711,22.41 712,22.66 713,22.91 714,23.18 715,23.45 716,23.74 717,24.03 718,24.34 719,24.65 720,24.98 721,25.32 722,25.66 723,26.01 724,26.37 725,26.74 726,27.12 727,27.51 728,27.90 729,28.31 730,28.71 731,29.13 732,29.55 733,29.98 734,30.42 735,30.86 736,31.31 737,31.76 738,32.22 739,32.68 740,33.15 741,33.62 742,34.10 743,34.58 744,35.06 745,35.55 746,36.04 747,36.53 748,37.02 749,37.52 750,38.01 751,38.51 752,39.01 753,39.51 754,40.01 755,40.51 756,41.01 757,41.51 758,42.01 759,42.50 760,43.00 761,43.49 762,43.98 763,44.47 764,44.96 765,45.44 766,45.92 767,46.39 768,46.87 769,47.33 770,47.80 771,48.25 772,48.71 773,49.15 774,49.60 775,50.03 776,50.46 777,50.88 778,51.30 779,51.71 780,52.11 781,52.50 782,52.89 783,53.27 784,53.64 785,54.00 786,54.35 787,54.70 788,55.03 789,55.36 790,55.67 791,55.98 792,56.27 793,56.56 794,56.83 795,57.10 796,57.35 797,57.60 798,57.83 799,58.05 800,58.26 801,58.46 802,58.64 803,58.82 804,58.98 805,59.13 806,59.27 807,59.40 808,59.52 809,59.62 810,59.71 811,59.79 812,59.86 813,59.91 814,59.95 815,59.98 816,60.00 817,60.00 818,59.99 819,59.97 820,59.94 821,59.89 822,59.83 823,59.76 824,59.68 825,59.58 826,59.47 827,59.36 828,59.22 829,59.08 830,58.92 831,58.76 832,58.58 833,58.38 834,58.18 835,57.97 836,57.74 837,57.51 838,57.26 839,57.00 840,56.73 841,56.45 842,56.16 843,55.87 844,55.56 845,55.24 846,54.91 847,54.57 848,54.22 849,53.87 850,53.50 851,53.13 852,52.75 853,52.36 854,51.96 855,51.56 856,51.15 857,50.73 858,50.30 859,49.87 860,49.43 861,48.99 862,48.54 863,48.08 864,47.63 865,47.16 866,46.69 867,46.22 868,45.74 869,45.26 870,44.78 871,44.29 872,43.80 873,43.31 874,42.81 875,42.32 876,41.82 877,41.32 878,40.82 879,40.32 880,39.82 881,39.32 882,38.82 883,38.32 884,37.83 885,37.33 886,36.84 887,36.34 888,35.85 889,35.37 890,34.88 891,34.40 892,33.92 893,33.45 894,32.98 895,32.51 896,32.05 897,31.59 898,31.14 899,30.70 900,30.26 901,29.82 902,29.40 903,28.98 904,28.56 905,28.15 906,27.76 907,27.36 908,26.98 909,26.61 910,26.24 911,25.88 912,25.53 913,25.19 914,24.86 915,24.54 916,24.22 917,23.92 918,23.63 919,23.35 920,23.08 921,22.81 922,22.56 923,22.32 924,22.10 925,21.88 926,21.67 927,21.48 928,21.30 929,21.12 930,20.97 931,20.82 932,20.68 933,20.56 934,20.45 935,20.35 936,20.26 937,20.19 938,20.13 939,20.08 940,20.04 941,20.01 942,20.00 943,20.00 944,20.01 945,20.04 946,20.08 947,20.13 948,20.19 949,20.27 950,20.35 951,20.45 952,20.56 953,20.69 954,20.82 955,20.97 956,21.13 957,21.30 958,21.49 959,21.68 960,21.89 961,22.11 962,22.34 963,22.58 964,22.83 965,23.09 966,23.36 967,23.64 968,23.93 969,24.24 970,24.55 971,24.87 972,25.20 973,25.55 974,25.90 975,26.25 976,26.62 977,27.00 978,27.38 979,27.77 980,28.17 981,28.58 982,28.99 983,29.41 984,29.84 985,30.28 986,30.72 987,31.16 988,31.61 989,32.07 990,32.53 991,33.00 992,33.47 993,33.94 994,34.42 995,34.90 996,35.39 997,35.87 998,36.37 999,36.86 1000,37.35 1001,37.85 1002,38.35 1003,38.85 1004,39.35 1005,39.85 1006,40.35 1007,40.84 1008,41.34 1009,41.84 1010,42.34 1011,42.84 1012,43.33 1013,43.82 1014,44.31 1015,44.80 1016,45.28 1017,45.76 1018,46.24 1019,46.71 1020,47.18 1021,47.65 1022,48.11 1023,48.56 1024,49.01 1025,49.45 1026,49.89 1027,50.32 1028,50.75 1029,51.16 1030,51.58 1031,51.98 1032,52.38 1033,52.77 1034,53.15 1035,53.52 1036,53.88 1037,54.24 1038,54.59 1039,54.92 1040,55.25 1041,55.57 1042,55.88 1043,56.18 1044,56.47 1045,56.75 1046,57.01 1047,57.27 1048,57.52 1049,57.75 1050,57.98 1051,58.19 1052,58.39 1053,58.58 1054,58.76 1055,58.93 1056,59.09 1057,59.23 1058,59.36 1059,59.48 1060,59.59 1061,59.68 1062,59.76 1063,59.84 1064,59.89 1065,59.94 1066,59.97 1067,59.99 1068,60.00 1069,60.00 1070,59.98 1071,59.95 1072,59.91 1073,59.85 1074,59.79 1075,59.71 1076,59.62 1077,59.51 1078,59.40 1079,59.27 1080,59.13 1081,58.98 1082,58.81 1083,58.64 1084,58.45 1085,58.25 1086,58.04 1087,57.82 1088,57.59 1089,57.34 1090,57.09 1091,56.82 1092,56.55 1093,56.26 1094,55.96 1095,55.66 1096,55.34 1097,55.02 1098,54.68 1099,54.34 1100,53.98 1101,53.62 1102,53.25 1103,52.87 1104,52.49 1105,52.09 1106,51.69 1107,51.28 1108,50.87 1109,50.44 1110,50.01 1111,49.58 1112,49.13 1113,48.69 1114,48.23 1115,47.78 1116,47.31 1117,46.85 1118,46.37 1119,45.90 1120,45.42 1121,44.94 1122,44.45 1123,43.96 1124,43.47 1125,42.98 1126,42.48 1127,41.98 1128,41.49 1129,40.99 1130,40.49 1131,39.99 1132,39.49 1133,38.99 1134,38.49 1135,37.99 1136,37.49 1137,37.00 1138,36.50 1139,36.01 1140,35.52 1141,35.04 1142,34.56 1143,34.08 1144,33.60 1145,33.13 1146,32.66 1147,32.20 1148,31.74 1149,31.29 1150,30.84 1151,30.40 1152,29.96 1153,29.53 1154,29.11 1155,28.70 1156,28.29 1157,27.89 1158,27.49 1159,27.11 1160,26.73 1161,26.36 1162,26.00 1163,25.64 1164,25.30 1165,24.97 1166,24.64 1167,24.33 1168,24.02 1169,23.72 1170,23.44 1171,23.16 1172,22.90 1173,22.64 1174,22.40 1175,22.17 1176,21.95 1177,21.74 1178,21.54 1179,21.35 1180,21.18 1181,21.02 1182,20.86 1183,20.73 1184,20.60 1185,20.48 1186,20.38 1187,20.29 1188,20.21 1189,20.14 1190,20.09 1191,20.05 1192,20.02 1193,20.00 1194,20.00 1195,20.01 1196,20.03 1197,20.06 1198,20.11 1199,20.17 1200,20.24" fill="none" stroke="#004AAD" stroke-width="3" stroke-linecap="round"/>
</svg>