<svg xmlns="http://www.w3.org/2000/svg" xmlns:xlink="http://www.w3.org/1999/xlink" width="500" zoomAndPan="magnify" viewBox="0 0 375 374.999991" height="500" preserveAspectRatio="xMidYMid meet" version="1.0"><defs><g/><clipPath id="5ef0029d15"><path d="M 7.816406 244.902344 L 368.566406 244.902344 L 368.566406 359.652344 L 7.816406 359.652344 Z M 7.816406 244.902344 " clip-rule="nonzero"/></clipPath></defs><g clip-path="url(#5ef0029d15)"><path fill="#004aad" d="M 164.816406 244.859375 L 164.683594 244.863281 C 144.398438 245.960938 126.707031 251.816406 111.609375 262.425781 L 111.582031 262.445312 C 104.804688 267.429688 98.65625 273.007812 93.132812 279.175781 L 93.074219 279.25 C 61.78125 318.683594 44.632812 339.0625 41.632812 340.378906 C 41.433594 340.453125 41.253906 340.5625 41.097656 340.703125 C 30.304688 350.648438 19.75 355.777344 9.429688 356.089844 C 8.554688 356.117188 7.863281 356.851562 7.890625 357.726562 C 7.917969 358.589844 8.621094 359.269531 9.476562 359.269531 C 9.496094 359.269531 9.511719 359.269531 9.527344 359.269531 C 20.566406 358.933594 31.738281 353.59375 43.039062 343.242188 L 43.019531 343.242188 C 46.726562 341.363281 64.222656 320.714844 95.507812 281.296875 L 95.503906 281.296875 C 100.871094 275.300781 106.847656 269.875 113.4375 265.023438 C 128.019531 254.777344 145.136719 249.117188 164.78125 248.042969 L 164.804688 248.042969 C 191.0625 248.808594 205.613281 257.988281 208.464844 275.582031 L 208.441406 275.582031 C 208.320312 280.449219 207.726562 283.460938 206.65625 284.613281 C 196.46875 278.34375 186.972656 275.210938 178.175781 275.210938 C 167.863281 275.210938 158.503906 279.515625 150.105469 288.128906 C 150.023438 288.214844 149.953125 288.304688 149.890625 288.402344 C 149.539062 288.972656 149.203125 289.539062 148.886719 290.101562 C 139.28125 307.140625 144.890625 321.53125 165.714844 333.265625 L 165.785156 333.304688 C 175.574219 338.183594 188.671875 340.625 205.074219 340.625 C 207.59375 340.625 210.191406 340.566406 212.871094 340.453125 L 212.867188 340.453125 C 225.941406 339.976562 245.996094 336.105469 273.039062 328.839844 L 273.03125 328.839844 C 274.847656 328.464844 277.074219 328.277344 279.710938 328.277344 C 280.804688 328.277344 281.96875 328.3125 283.199219 328.375 L 283.191406 328.375 C 283.59375 328.410156 283.953125 328.453125 284.269531 328.503906 L 284.246094 328.503906 C 278.632812 332.546875 276.078125 336.667969 276.578125 340.867188 C 276.929688 344.300781 280.304688 346.917969 286.699219 348.722656 L 286.683594 348.722656 C 288.375 349.328125 290.351562 349.628906 292.621094 349.628906 C 299.421875 349.628906 308.835938 346.90625 320.863281 341.457031 L 320.882812 341.457031 C 327.988281 349.496094 336.550781 353.511719 346.574219 353.511719 C 352.933594 353.511719 359.882812 351.894531 367.417969 348.65625 C 368.222656 348.308594 368.597656 347.371094 368.25 346.566406 C 367.992188 345.964844 367.40625 345.605469 366.789062 345.605469 C 366.578125 345.605469 366.367188 345.644531 366.164062 345.734375 C 359.113281 348.765625 352.628906 350.28125 346.710938 350.28125 C 337.179688 350.28125 329.113281 346.347656 322.519531 338.484375 C 322.210938 338.117188 321.761719 337.917969 321.300781 337.917969 C 321.078125 337.917969 320.851562 337.964844 320.636719 338.0625 C 308.453125 343.679688 299.15625 346.484375 292.746094 346.484375 C 290.789062 346.484375 289.097656 346.222656 287.679688 345.699219 L 287.5625 345.660156 C 282.539062 344.246094 279.933594 342.53125 279.738281 340.523438 L 279.734375 340.488281 C 279.339844 337.179688 282.019531 333.664062 287.777344 329.945312 C 288.121094 329.722656 288.363281 329.382812 288.460938 328.988281 C 288.71875 327.9375 288.402344 327.066406 287.519531 326.375 C 287.054688 326.011719 286.414062 325.730469 285.601562 325.535156 C 284.996094 325.386719 284.269531 325.277344 283.417969 325.203125 L 283.285156 325.199219 L 283.363281 325.199219 C 282.085938 325.132812 280.871094 325.101562 279.726562 325.101562 C 276.859375 325.101562 274.414062 325.308594 272.390625 325.726562 L 272.296875 325.746094 C 245.445312 332.964844 225.597656 336.808594 212.753906 337.273438 L 212.742188 337.277344 C 210.097656 337.390625 207.53125 337.445312 205.046875 337.445312 C 189.207031 337.445312 176.617188 335.128906 167.28125 330.496094 L 167.277344 330.496094 C 148.300781 319.800781 143.09375 306.855469 151.65625 291.664062 C 151.914062 291.203125 152.1875 290.742188 152.46875 290.28125 L 152.449219 290.28125 C 160.148438 282.414062 168.753906 278.476562 178.265625 278.476562 C 186.738281 278.476562 195.929688 281.601562 205.839844 287.847656 C 206.097656 288.011719 206.390625 288.09375 206.6875 288.09375 C 206.894531 288.09375 207.105469 288.050781 207.304688 287.96875 C 210.03125 286.816406 211.472656 282.625 211.625 275.390625 C 211.628906 275.292969 211.621094 275.199219 211.605469 275.101562 C 208.484375 255.746094 192.890625 245.664062 164.816406 244.859375 Z M 164.816406 244.859375 " fill-opacity="0.996" fill-rule="nonzero"/></g><g fill="#004aad" fill-opacity="1"><g transform="translate(25.167304, 82.398324)"><g><path d="M 49.1875 -33.59375 L 40.421875 0 L 30.53125 0 L 25.171875 -22.109375 L 19.609375 0 L 9.71875 0 L 1.203125 -33.59375 L 9.953125 -33.59375 L 14.78125 -9.140625 L 20.765625 -33.59375 L 29.765625 -33.59375 L 35.5 -9.140625 L 40.375 -33.59375 Z M 49.1875 -33.59375 "/></g></g></g><g fill="#004aad" fill-opacity="1"><g transform="translate(75.513357, 82.398324)"><g><path d="M 27.609375 -14.109375 C 27.609375 -13.285156 27.5625 -12.410156 27.46875 -11.484375 L 6.5 -11.484375 C 6.664062 -8.898438 7.550781 -6.878906 9.15625 -5.421875 C 10.769531 -3.972656 12.722656 -3.25 15.015625 -3.25 C 16.898438 -3.25 18.472656 -3.6875 19.734375 -4.5625 C 20.992188 -5.445312 21.878906 -6.617188 22.390625 -8.078125 L 27.078125 -8.078125 C 26.378906 -5.566406 24.976562 -3.519531 22.875 -1.9375 C 20.769531 -0.351562 18.148438 0.4375 15.015625 0.4375 C 12.535156 0.4375 10.3125 -0.117188 8.34375 -1.234375 C 6.382812 -2.359375 4.847656 -3.945312 3.734375 -6 C 2.617188 -8.0625 2.0625 -10.445312 2.0625 -13.15625 C 2.0625 -15.863281 2.601562 -18.238281 3.6875 -20.28125 C 4.769531 -22.320312 6.289062 -23.894531 8.25 -25 C 10.21875 -26.101562 12.472656 -26.65625 15.015625 -26.65625 C 17.503906 -26.65625 19.707031 -26.109375 21.625 -25.015625 C 23.539062 -23.929688 25.015625 -22.441406 26.046875 -20.546875 C 27.085938 -18.648438 27.609375 -16.503906 27.609375 -14.109375 Z M 23.109375 -15.015625 C 23.109375 -16.679688 22.738281 -18.109375 22 -19.296875 C 21.269531 -20.492188 20.273438 -21.40625 19.015625 -22.03125 C 17.753906 -22.65625 16.359375 -22.96875 14.828125 -22.96875 C 12.628906 -22.96875 10.753906 -22.265625 9.203125 -20.859375 C 7.660156 -19.453125 6.773438 -17.503906 6.546875 -15.015625 Z M 23.109375 -15.015625 "/></g></g></g><g fill="#004aad" fill-opacity="1"><g transform="translate(105.175965, 82.398324)"><g><path d="M 8.03125 -35.40625 L 8.03125 0 L 3.6875 0 L 3.6875 -35.40625 Z M 8.03125 -35.40625 "/></g></g></g><g fill="#004aad" fill-opacity="1"><g transform="translate(116.945332, 82.398324)"><g><path d="M 8.03125 -35.40625 L 8.03125 0 L 3.6875 0 L 3.6875 -35.40625 Z M 8.03125 -35.40625 "/></g></g></g><g fill="#004aad" fill-opacity="1"><g transform="translate(128.714699, 82.398324)"><g><path d="M 27.609375 -14.109375 C 27.609375 -13.285156 27.5625 -12.410156 27.46875 -11.484375 L 6.5 -11.484375 C 6.664062 -8.898438 7.550781 -6.878906 9.15625 -5.421875 C 10.769531 -3.972656 12.722656 -3.25 15.015625 -3.25 C 16.898438 -3.25 18.472656 -3.6875 19.734375 -4.5625 C 20.992188 -5.445312 21.878906 -6.617188 22.390625 -8.078125 L 27.078125 -8.078125 C 26.378906 -5.566406 24.976562 -3.519531 22.875 -1.9375 C 20.769531 -0.351562 18.148438 0.4375 15.015625 0.4375 C 12.535156 0.4375 10.3125 -0.117188 8.34375 -1.234375 C 6.382812 -2.359375 4.847656 -3.945312 3.734375 -6 C 2.617188 -8.0625 2.0625 -10.445312 2.0625 -13.15625 C 2.0625 -15.863281 2.601562 -18.238281 3.6875 -20.28125 C 4.769531 -22.320312 6.289062 -23.894531 8.25 -25 C 10.21875 -26.101562 12.472656 -26.65625 15.015625 -26.65625 C 17.503906 -26.65625 19.707031 -26.109375 21.625 -25.015625 C 23.539062 -23.929688 25.015625 -22.441406 26.046875 -20.546875 C 27.085938 -18.648438 27.609375 -16.503906 27.609375 -14.109375 Z M 23.109375 -15.015625 C 23.109375 -16.679688 22.738281 -18.109375 22 -19.296875 C 21.269531 -20.492188 20.273438 -21.40625 19.015625 -22.03125 C 17.753906 -22.65625 16.359375 -22.96875 14.828125 -22.96875 C 12.628906 -22.96875 10.753906 -22.265625 9.203125 -20.859375 C 7.660156 -19.453125 6.773438 -17.503906 6.546875 -15.015625 Z M 23.109375 -15.015625 "/></g></g></g><g fill="#004aad" fill-opacity="1"><g transform="translate(25.167304, 129.820541)"><g><path d="M 49.1875 -33.59375 L 40.421875 0 L 30.53125 0 L 25.171875 -22.109375 L 19.609375 0 L 9.71875 0 L 1.203125 -33.59375 L 9.953125 -33.59375 L 14.78125 -9.140625 L 20.765625 -33.59375 L 29.765625 -33.59375 L 35.5 -9.140625 L 40.375 -33.59375 Z M 49.1875 -33.59375 "/></g></g></g><g fill="#004aad" fill-opacity="1"><g transform="translate(75.513357, 129.820541)"><g><path d="M 27.609375 -14.109375 C 27.609375 -13.285156 27.5625 -12.410156 27.46875 -11.484375 L 6.5 -11.484375 C 6.664062 -8.898438 7.550781 -6.878906 9.15625 -5.421875 C 10.769531 -3.972656 12.722656 -3.25 15.015625 -3.25 C 16.898438 -3.25 18.472656 -3.6875 19.734375 -4.5625 C 20.992188 -5.445312 21.878906 -6.617188 22.390625 -8.078125 L 27.078125 -8.078125 C 26.378906 -5.566406 24.976562 -3.519531 22.875 -1.9375 C 20.769531 -0.351562 18.148438 0.4375 15.015625 0.4375 C 12.535156 0.4375 10.3125 -0.117188 8.34375 -1.234375 C 6.382812 -2.359375 4.847656 -3.945312 3.734375 -6 C 2.617188 -8.0625 2.0625 -10.445312 2.0625 -13.15625 C 2.0625 -15.863281 2.601562 -18.238281 3.6875 -20.28125 C 4.769531 -22.320312 6.289062 -23.894531 8.25 -25 C 10.21875 -26.101562 12.472656 -26.65625 15.015625 -26.65625 C 17.503906 -26.65625 19.707031 -26.109375 21.625 -25.015625 C 23.539062 -23.929688 25.015625 -22.441406 26.046875 -20.546875 C 27.085938 -18.648438 27.609375 -16.503906 27.609375 -14.109375 Z M 23.109375 -15.015625 C 23.109375 -16.679688 22.738281 -18.109375 22 -19.296875 C 21.269531 -20.492188 20.273438 -21.40625 19.015625 -22.03125 C 17.753906 -22.65625 16.359375 -22.96875 14.828125 -22.96875 C 12.628906 -22.96875 10.753906 -22.265625 9.203125 -20.859375 C 7.660156 -19.453125 6.773438 -17.503906 6.546875 -15.015625 Z M 23.109375 -15.015625 "/></g></g></g><g fill="#004aad" fill-opacity="1"><g transform="translate(105.175965, 129.820541)"><g><path d="M 12.96875 0.4375 C 10.957031 0.4375 9.15625 0.09375 7.5625 -0.59375 C 5.96875 -1.28125 4.707031 -2.238281 3.78125 -3.46875 C 2.851562 -4.695312 2.34375 -6.109375 2.25 -7.703125 L 6.75 -7.703125 C 6.875 -6.390625 7.484375 -5.316406 8.578125 -4.484375 C 9.679688 -3.660156 11.128906 -3.25 12.921875 -3.25 C 14.578125 -3.25 15.882812 -3.613281 16.84375 -4.34375 C 17.800781 -5.082031 18.28125 -6.007812 18.28125 -7.125 C 18.28125 -8.269531 17.769531 -9.125 16.75 -9.6875 C 15.726562 -10.25 14.148438 -10.800781 12.015625 -11.34375 C 10.066406 -11.851562 8.476562 -12.367188 7.25 -12.890625 C 6.019531 -13.421875 4.96875 -14.203125 4.09375 -15.234375 C 3.21875 -16.273438 2.78125 -17.640625 2.78125 -19.328125 C 2.78125 -20.671875 3.175781 -21.898438 3.96875 -23.015625 C 4.769531 -24.128906 5.898438 -25.015625 7.359375 -25.671875 C 8.828125 -26.328125 10.503906 -26.65625 12.390625 -26.65625 C 15.296875 -26.65625 17.640625 -25.921875 19.421875 -24.453125 C 21.210938 -22.984375 22.171875 -20.972656 22.296875 -18.421875 L 17.9375 -18.421875 C 17.84375 -19.796875 17.289062 -20.894531 16.28125 -21.71875 C 15.28125 -22.550781 13.9375 -22.96875 12.25 -22.96875 C 10.6875 -22.96875 9.441406 -22.628906 8.515625 -21.953125 C 7.585938 -21.285156 7.125 -20.410156 7.125 -19.328125 C 7.125 -18.460938 7.398438 -17.75 7.953125 -17.1875 C 8.515625 -16.632812 9.21875 -16.191406 10.0625 -15.859375 C 10.914062 -15.523438 12.09375 -15.148438 13.59375 -14.734375 C 15.46875 -14.222656 16.992188 -13.71875 18.171875 -13.21875 C 19.359375 -12.726562 20.375 -11.988281 21.21875 -11 C 22.0625 -10.007812 22.5 -8.71875 22.53125 -7.125 C 22.53125 -5.6875 22.128906 -4.394531 21.328125 -3.25 C 20.535156 -2.101562 19.410156 -1.203125 17.953125 -0.546875 C 16.503906 0.109375 14.84375 0.4375 12.96875 0.4375 Z M 12.96875 0.4375 "/></g></g></g><g fill="#004aad" fill-opacity="1"><g transform="translate(130.14996, 129.820541)"><g><path d="M 9 -22.625 L 9 -7.171875 C 9 -5.898438 9.269531 -5 9.8125 -4.46875 C 10.351562 -3.945312 11.289062 -3.6875 12.625 -3.6875 L 15.84375 -3.6875 L 15.84375 0 L 11.90625 0 C 9.488281 0 7.671875 -0.554688 6.453125 -1.671875 C 5.242188 -2.785156 4.640625 -4.617188 4.640625 -7.171875 L 4.640625 -22.625 L 1.25 -22.625 L 1.25 -26.21875 L 4.640625 -26.21875 L 4.640625 -32.828125 L 9 -32.828125 L 9 -26.21875 L 15.84375 -26.21875 L 15.84375 -22.625 Z M 9 -22.625 "/></g></g></g><g fill="#004aad" fill-opacity="1"><g transform="translate(25.167304, 177.242758)"><g><path d="M 49.1875 -33.59375 L 40.421875 0 L 30.53125 0 L 25.171875 -22.109375 L 19.609375 0 L 9.71875 0 L 1.203125 -33.59375 L 9.953125 -33.59375 L 14.78125 -9.140625 L 20.765625 -33.59375 L 29.765625 -33.59375 L 35.5 -9.140625 L 40.375 -33.59375 Z M 49.1875 -33.59375 "/></g></g></g><g fill="#004aad" fill-opacity="1"><g transform="translate(75.513357, 177.242758)"><g><path d="M 27.609375 -14.109375 C 27.609375 -13.285156 27.5625 -12.410156 27.46875 -11.484375 L 6.5 -11.484375 C 6.664062 -8.898438 7.550781 -6.878906 9.15625 -5.421875 C 10.769531 -3.972656 12.722656 -3.25 15.015625 -3.25 C 16.898438 -3.25 18.472656 -3.6875 19.734375 -4.5625 C 20.992188 -5.445312 21.878906 -6.617188 22.390625 -8.078125 L 27.078125 -8.078125 C 26.378906 -5.566406 24.976562 -3.519531 22.875 -1.9375 C 20.769531 -0.351562 18.148438 0.4375 15.015625 0.4375 C 12.535156 0.4375 10.3125 -0.117188 8.34375 -1.234375 C 6.382812 -2.359375 4.847656 -3.945312 3.734375 -6 C 2.617188 -8.0625 2.0625 -10.445312 2.0625 -13.15625 C 2.0625 -15.863281 2.601562 -18.238281 3.6875 -20.28125 C 4.769531 -22.320312 6.289062 -23.894531 8.25 -25 C 10.21875 -26.101562 12.472656 -26.65625 15.015625 -26.65625 C 17.503906 -26.65625 19.707031 -26.109375 21.625 -25.015625 C 23.539062 -23.929688 25.015625 -22.441406 26.046875 -20.546875 C 27.085938 -18.648438 27.609375 -16.503906 27.609375 -14.109375 Z M 23.109375 -15.015625 C 23.109375 -16.679688 22.738281 -18.109375 22 -19.296875 C 21.269531 -20.492188 20.273438 -21.40625 19.015625 -22.03125 C 17.753906 -22.65625 16.359375 -22.96875 14.828125 -22.96875 C 12.628906 -22.96875 10.753906 -22.265625 9.203125 -20.859375 C 7.660156 -19.453125 6.773438 -17.503906 6.546875 -15.015625 Z M 23.109375 -15.015625 "/></g></g></g><g fill="#004aad" fill-opacity="1"><g transform="translate(105.175965, 177.242758)"><g><path d="M 8.03125 -21.34375 C 8.925781 -22.90625 10.234375 -24.179688 11.953125 -25.171875 C 13.679688 -26.160156 15.644531 -26.65625 17.84375 -26.65625 C 20.207031 -26.65625 22.328125 -26.09375 24.203125 -24.96875 C 26.085938 -23.851562 27.570312 -22.28125 28.65625 -20.25 C 29.738281 -18.226562 30.28125 -15.878906 30.28125 -13.203125 C 30.28125 -10.554688 29.738281 -8.195312 28.65625 -6.125 C 27.570312 -4.050781 26.082031 -2.4375 24.1875 -1.28125 C 22.289062 -0.132812 20.175781 0.4375 17.84375 0.4375 C 15.582031 0.4375 13.597656 -0.0546875 11.890625 -1.046875 C 10.179688 -2.035156 8.894531 -3.296875 8.03125 -4.828125 L 8.03125 0 L 3.6875 0 L 3.6875 -35.40625 L 8.03125 -35.40625 Z M 25.828125 -13.203125 C 25.828125 -15.179688 25.425781 -16.90625 24.625 -18.375 C 23.832031 -19.84375 22.757812 -20.957031 21.40625 -21.71875 C 20.050781 -22.488281 18.5625 -22.875 16.9375 -22.875 C 15.34375 -22.875 13.867188 -22.484375 12.515625 -21.703125 C 11.160156 -20.921875 10.070312 -19.785156 9.25 -18.296875 C 8.4375 -16.816406 8.03125 -15.101562 8.03125 -13.15625 C 8.03125 -11.175781 8.4375 -9.441406 9.25 -7.953125 C 10.070312 -6.472656 11.160156 -5.34375 12.515625 -4.5625 C 13.867188 -3.78125 15.34375 -3.390625 16.9375 -3.390625 C 18.5625 -3.390625 20.050781 -3.78125 21.40625 -4.5625 C 22.757812 -5.34375 23.832031 -6.472656 24.625 -7.953125 C 25.425781 -9.441406 25.828125 -11.191406 25.828125 -13.203125 Z M 25.828125 -13.203125 "/></g></g></g><g fill="#004aad" fill-opacity="1"><g transform="translate(137.517772, 177.242758)"><g><path d="M 2.0625 -13.203125 C 2.0625 -15.878906 2.601562 -18.226562 3.6875 -20.25 C 4.769531 -22.28125 6.257812 -23.851562 8.15625 -24.96875 C 10.050781 -26.09375 12.179688 -26.65625 14.546875 -26.65625 C 16.585938 -26.65625 18.484375 -26.179688 20.234375 -25.234375 C 21.992188 -24.296875 23.332031 -23.0625 24.25 -21.53125 L 24.25 -35.40625 L 28.65625 -35.40625 L 28.65625 0 L 24.25 0 L 24.25 -4.921875 C 23.394531 -3.359375 22.117188 -2.070312 20.421875 -1.0625 C 18.734375 -0.0625 16.757812 0.4375 14.5 0.4375 C 12.164062 0.4375 10.050781 -0.132812 8.15625 -1.28125 C 6.257812 -2.4375 4.769531 -4.050781 3.6875 -6.125 C 2.601562 -8.195312 2.0625 -10.554688 2.0625 -13.203125 Z M 24.25 -13.15625 C 24.25 -15.132812 23.847656 -16.859375 23.046875 -18.328125 C 22.253906 -19.796875 21.179688 -20.921875 19.828125 -21.703125 C 18.472656 -22.484375 16.984375 -22.875 15.359375 -22.875 C 13.734375 -22.875 12.25 -22.488281 10.90625 -21.71875 C 9.570312 -20.957031 8.503906 -19.84375 7.703125 -18.375 C 6.898438 -16.90625 6.5 -15.179688 6.5 -13.203125 C 6.5 -11.191406 6.898438 -9.441406 7.703125 -7.953125 C 8.503906 -6.472656 9.570312 -5.34375 10.90625 -4.5625 C 12.25 -3.78125 13.734375 -3.390625 15.359375 -3.390625 C 16.984375 -3.390625 18.472656 -3.78125 19.828125 -4.5625 C 21.179688 -5.34375 22.253906 -6.472656 23.046875 -7.953125 C 23.847656 -9.441406 24.25 -11.175781 24.25 -13.15625 Z M 24.25 -13.15625 "/></g></g></g><g fill="#004aad" fill-opacity="1"><g transform="translate(169.859579, 177.242758)"><g><path d="M 27.609375 -14.109375 C 27.609375 -13.285156 27.5625 -12.410156 27.46875 -11.484375 L 6.5 -11.484375 C 6.664062 -8.898438 7.550781 -6.878906 9.15625 -5.421875 C 10.769531 -3.972656 12.722656 -3.25 15.015625 -3.25 C 16.898438 -3.25 18.472656 -3.6875 19.734375 -4.5625 C 20.992188 -5.445312 21.878906 -6.617188 22.390625 -8.078125 L 27.078125 -8.078125 C 26.378906 -5.566406 24.976562 -3.519531 22.875 -1.9375 C 20.769531 -0.351562 18.148438 0.4375 15.015625 0.4375 C 12.535156 0.4375 10.3125 -0.117188 8.34375 -1.234375 C 6.382812 -2.359375 4.847656 -3.945312 3.734375 -6 C 2.617188 -8.0625 2.0625 -10.445312 2.0625 -13.15625 C 2.0625 -15.863281 2.601562 -18.238281 3.6875 -20.28125 C 4.769531 -22.320312 6.289062 -23.894531 8.25 -25 C 10.21875 -26.101562 12.472656 -26.65625 15.015625 -26.65625 C 17.503906 -26.65625 19.707031 -26.109375 21.625 -25.015625 C 23.539062 -23.929688 25.015625 -22.441406 26.046875 -20.546875 C 27.085938 -18.648438 27.609375 -16.503906 27.609375 -14.109375 Z M 23.109375 -15.015625 C 23.109375 -16.679688 22.738281 -18.109375 22 -19.296875 C 21.269531 -20.492188 20.273438 -21.40625 19.015625 -22.03125 C 17.753906 -22.65625 16.359375 -22.96875 14.828125 -22.96875 C 12.628906 -22.96875 10.753906 -22.265625 9.203125 -20.859375 C 7.660156 -19.453125 6.773438 -17.503906 6.546875 -15.015625 Z M 23.109375 -15.015625 "/></g></g></g><g fill="#004aad" fill-opacity="1"><g transform="translate(199.522188, 177.242758)"><g><path d="M 12.96875 0.4375 C 10.957031 0.4375 9.15625 0.09375 7.5625 -0.59375 C 5.96875 -1.28125 4.707031 -2.238281 3.78125 -3.46875 C 2.851562 -4.695312 2.34375 -6.109375 2.25 -7.703125 L 6.75 -7.703125 C 6.875 -6.390625 7.484375 -5.316406 8.578125 -4.484375 C 9.679688 -3.660156 11.128906 -3.25 12.921875 -3.25 C 14.578125 -3.25 15.882812 -3.613281 16.84375 -4.34375 C 17.800781 -5.082031 18.28125 -6.007812 18.28125 -7.125 C 18.28125 -8.269531 17.769531 -9.125 16.75 -9.6875 C 15.726562 -10.25 14.148438 -10.800781 12.015625 -11.34375 C 10.066406 -11.851562 8.476562 -12.367188 7.25 -12.890625 C 6.019531 -13.421875 4.96875 -14.203125 4.09375 -15.234375 C 3.21875 -16.273438 2.78125 -17.640625 2.78125 -19.328125 C 2.78125 -20.671875 3.175781 -21.898438 3.96875 -23.015625 C 4.769531 -24.128906 5.898438 -25.015625 7.359375 -25.671875 C 8.828125 -26.328125 10.503906 -26.65625 12.390625 -26.65625 C 15.296875 -26.65625 17.640625 -25.921875 19.421875 -24.453125 C 21.210938 -22.984375 22.171875 -20.972656 22.296875 -18.421875 L 17.9375 -18.421875 C 17.84375 -19.796875 17.289062 -20.894531 16.28125 -21.71875 C 15.28125 -22.550781 13.9375 -22.96875 12.25 -22.96875 C 10.6875 -22.96875 9.441406 -22.628906 8.515625 -21.953125 C 7.585938 -21.285156 7.125 -20.410156 7.125 -19.328125 C 7.125 -18.460938 7.398438 -17.75 7.953125 -17.1875 C 8.515625 -16.632812 9.21875 -16.191406 10.0625 -15.859375 C 10.914062 -15.523438 12.09375 -15.148438 13.59375 -14.734375 C 15.46875 -14.222656 16.992188 -13.71875 18.171875 -13.21875 C 19.359375 -12.726562 20.375 -11.988281 21.21875 -11 C 22.0625 -10.007812 22.5 -8.71875 22.53125 -7.125 C 22.53125 -5.6875 22.128906 -4.394531 21.328125 -3.25 C 20.535156 -2.101562 19.410156 -1.203125 17.953125 -0.546875 C 16.503906 0.109375 14.84375 0.4375 12.96875 0.4375 Z M 12.96875 0.4375 "/></g></g></g><g fill="#004aad" fill-opacity="1"><g transform="translate(224.496183, 177.242758)"><g><path d="M 5.9375 -30.46875 C 5.101562 -30.46875 4.398438 -30.753906 3.828125 -31.328125 C 3.253906 -31.910156 2.96875 -32.613281 2.96875 -33.4375 C 2.96875 -34.269531 3.253906 -34.972656 3.828125 -35.546875 C 4.398438 -36.117188 5.101562 -36.40625 5.9375 -36.40625 C 6.726562 -36.40625 7.398438 -36.117188 7.953125 -35.546875 C 8.515625 -34.972656 8.796875 -34.269531 8.796875 -33.4375 C 8.796875 -32.613281 8.515625 -31.910156 7.953125 -31.328125 C 7.398438 -30.753906 6.726562 -30.46875 5.9375 -30.46875 Z M 8.03125 -26.21875 L 8.03125 0 L 3.6875 0 L 3.6875 -26.21875 Z M 8.03125 -26.21875 "/></g></g></g><g fill="#004aad" fill-opacity="1"><g transform="translate(236.26555, 177.242758)"><g><path d="M 14.5 -26.65625 C 16.757812 -26.65625 18.742188 -26.160156 20.453125 -25.171875 C 22.160156 -24.179688 23.425781 -22.9375 24.25 -21.4375 L 24.25 -26.21875 L 28.65625 -26.21875 L 28.65625 0.578125 C 28.65625 2.960938 28.144531 5.085938 27.125 6.953125 C 26.101562 8.828125 24.644531 10.289062 22.75 11.34375 C 20.851562 12.394531 18.644531 12.921875 16.125 12.921875 C 12.675781 12.921875 9.800781 12.101562 7.5 10.46875 C 5.207031 8.84375 3.851562 6.628906 3.4375 3.828125 L 7.75 3.828125 C 8.226562 5.421875 9.21875 6.703125 10.71875 7.671875 C 12.21875 8.648438 14.019531 9.140625 16.125 9.140625 C 18.519531 9.140625 20.472656 8.390625 21.984375 6.890625 C 23.492188 5.390625 24.25 3.285156 24.25 0.578125 L 24.25 -4.921875 C 23.394531 -3.390625 22.117188 -2.113281 20.421875 -1.09375 C 18.734375 -0.0703125 16.757812 0.4375 14.5 0.4375 C 12.164062 0.4375 10.050781 -0.132812 8.15625 -1.28125 C 6.257812 -2.4375 4.769531 -4.050781 3.6875 -6.125 C 2.601562 -8.195312 2.0625 -10.554688 2.0625 -13.203125 C 2.0625 -15.878906 2.601562 -18.226562 3.6875 -20.25 C 4.769531 -22.28125 6.257812 -23.851562 8.15625 -24.96875 C 10.050781 -26.09375 12.164062 -26.65625 14.5 -26.65625 Z M 24.25 -13.15625 C 24.25 -15.132812 23.847656 -16.859375 23.046875 -18.328125 C 22.253906 -19.796875 21.179688 -20.921875 19.828125 -21.703125 C 18.472656 -22.484375 16.984375 -22.875 15.359375 -22.875 C 13.734375 -22.875 12.25 -22.488281 10.90625 -21.71875 C 9.570312 -20.957031 8.503906 -19.84375 7.703125 -18.375 C 6.898438 -16.90625 6.5 -15.179688 6.5 -13.203125 C 6.5 -11.191406 6.898438 -9.441406 7.703125 -7.953125 C 8.503906 -6.472656 9.570312 -5.34375 10.90625 -4.5625 C 12.25 -3.78125 13.734375 -3.390625 15.359375 -3.390625 C 16.984375 -3.390625 18.472656 -3.78125 19.828125 -4.5625 C 21.179688 -5.34375 22.253906 -6.472656 23.046875 -7.953125 C 23.847656 -9.441406 24.25 -11.175781 24.25 -13.15625 Z M 24.25 -13.15625 "/></g></g></g><g fill="#004aad" fill-opacity="1"><g transform="translate(268.607357, 177.242758)"><g><path d="M 16.453125 -26.703125 C 19.648438 -26.703125 22.234375 -25.734375 24.203125 -23.796875 C 26.179688 -21.867188 27.171875 -19.085938 27.171875 -15.453125 L 27.171875 0 L 22.875 0 L 22.875 -14.828125 C 22.875 -17.441406 22.21875 -19.441406 20.90625 -20.828125 C 19.601562 -22.222656 17.816406 -22.921875 15.546875 -22.921875 C 13.253906 -22.921875 11.425781 -22.203125 10.0625 -20.765625 C 8.707031 -19.328125 8.03125 -17.238281 8.03125 -14.5 L 8.03125 0 L 3.6875 0 L 3.6875 -26.21875 L 8.03125 -26.21875 L 8.03125 -22.484375 C 8.894531 -23.828125 10.066406 -24.863281 11.546875 -25.59375 C 13.035156 -26.332031 14.671875 -26.703125 16.453125 -26.703125 Z M 16.453125 -26.703125 "/></g></g></g><path stroke-linecap="butt" transform="matrix(0.75, 0, 0, 0.75, 7.817169, 15.669352)" fill="none" stroke-linejoin="miter" d="M -0.00101736 1.998156 L 478.868806 1.998156 " stroke="#004aad" stroke-width="4" stroke-opacity="1" stroke-miterlimit="4"/><path stroke-linecap="butt" transform="matrix(-0.00280941, 0.749995, -0.749995, -0.00280941, 10.595958, 17.177842)" fill="none" stroke-linejoin="miter" d="M -0.000473198 1.997752 L 456.211105 2.002383 " stroke="#004aad" stroke-width="4" stroke-opacity="1" stroke-miterlimit="4"/><path stroke-linecap="butt" transform="matrix(0.00291529, 0.749994, -0.749994, 0.00291529, 367.18038, 17.16383)" fill="none" stroke-linejoin="miter" d="M -0.00225875 2.000929 L 439.636505 2.001493 " stroke="#004aad" stroke-width="4" stroke-opacity="1" stroke-miterlimit="4"/></svg>